<svg width="1440" height="1024" viewBox="0 0 1440 1024" fill="none" xmlns="http://www.w3.org/2000/svg">
<g clip-path="url(#clip0_308_514)">
<rect width="1440" height="1024" fill="#343434"/>
<path d="M1783 99L262.026 731.715C135.899 783.848 29.9563 810 -55.7165 810C-152.737 810 -223.164 776.824 -266.823 710.387C-294.284 667.732 -302.34 613.652 -291.078 548.062C-279.817 482.471 -249.845 412.649 -201.334 338.342C-160.88 278.252 -94.6114 199.29 -2.3551 101.37C-33.6474 149.497 -56.594 202.342 -70.2696 257.771C-94.5248 358.907 -72.6951 433.13 -4.78061 480.525C27.5308 502.614 71.9697 513.701 128.623 513.701C173.842 513.701 224.777 506.591 281.431 492.373L1783 99Z" fill="white" fill-opacity="0.17"/>
</g>
<defs>
<clipPath id="clip0_308_514">
<rect width="1440" height="1024" fill="white"/>
</clipPath>
</defs>
</svg>
