<svg width="1440" height="711" viewBox="0 0 1440 711" fill="none" xmlns="http://www.w3.org/2000/svg">
<path d="M1783 0L262.026 632.715C135.899 684.848 29.9563 711 -55.7165 711C-152.737 711 -223.164 677.824 -266.823 611.387C-294.284 568.732 -302.34 514.652 -291.078 449.062C-279.817 383.471 -249.845 313.649 -201.334 239.342C-160.88 179.252 -94.6114 100.29 -2.3551 2.36971C-33.6474 50.4975 -56.594 103.342 -70.2696 158.771C-94.5248 259.907 -72.6951 334.13 -4.78061 381.525C27.5308 403.614 71.9697 414.701 128.623 414.701C173.842 414.701 224.777 407.591 281.431 393.373L1783 0Z" fill="white" fill-opacity="0.17"/>
</svg>
